<svg width="48" height="48" viewBox="0 0 48 48" fill="none" xmlns="http://www.w3.org/2000/svg">
<g clip-path="url(#clip0_2_82)">
<path d="M15.078 45C33.192 45 43.101 29.991 43.101 16.998C43.105 16.576 43.099 16.154 43.083 15.732C45.0115 14.3347 46.6764 12.6059 48 10.626C46.1973 11.4188 44.2879 11.9424 42.333 12.18C44.3928 10.9491 45.9354 9.01204 46.674 6.729C44.7398 7.87716 42.6216 8.68203 40.413 9.108C38.9285 7.52707 36.9642 6.47975 34.8243 6.12827C32.6843 5.77679 30.4882 6.14076 28.576 7.16381C26.6639 8.18686 25.1424 9.81189 24.2473 11.7872C23.3523 13.7625 23.1335 15.9778 23.625 18.09C19.709 17.8946 15.8779 16.8777 12.3805 15.1055C8.88303 13.3333 5.79742 10.8452 3.324 7.803C2.06874 9.97243 1.68585 12.5382 2.25302 14.9795C2.82019 17.4209 4.29494 19.5551 6.378 20.949C4.81623 20.8985 3.28858 20.4791 1.92 19.725V19.86C1.92382 22.1321 2.71146 24.3334 4.14997 26.0922C5.58848 27.851 7.58976 29.0596 9.816 29.514C8.97081 29.747 8.0977 29.863 7.221 29.859C6.60276 29.8654 5.9855 29.8081 5.379 29.688C6.00718 31.6449 7.23233 33.356 8.88251 34.5811C10.5327 35.8062 12.5251 36.4839 14.58 36.519C11.0883 39.2579 6.77774 40.7444 2.34 40.74C1.5579 40.7459 0.776239 40.7008 0 40.605C4.50427 43.4774 9.7358 45.0023 15.078 45Z" fill="#FEF7C1"/>
</g>
<defs>
<clipPath id="clip0_2_82">
<rect width="48" height="48" fill="white"/>
</clipPath>
</defs>
</svg>
