<svg width="48" height="48" viewBox="0 0 48 48" fill="none" xmlns="http://www.w3.org/2000/svg">
<path d="M22.356 39.138C22.5395 39.4045 22.785 39.6224 23.0714 39.7729C23.3578 39.9234 23.6765 40.0021 24 40.0021C24.3235 40.0021 24.6422 39.9234 24.9286 39.7729C25.215 39.6224 25.4605 39.4045 25.644 39.138L43.644 13.138C43.8523 12.8381 43.9745 12.4869 43.9973 12.1224C44.02 11.758 43.9424 11.3942 43.773 11.0708C43.6035 10.7473 43.3486 10.4765 43.0361 10.2877C42.7235 10.0989 42.3652 9.99943 42 10H6C5.63568 10.0015 5.27867 10.1023 4.96736 10.2915C4.65604 10.4808 4.4022 10.7513 4.23313 11.074C4.06406 11.3967 3.98617 11.7594 4.00781 12.1231C4.02946 12.4867 4.14984 12.8376 4.356 13.138L22.356 39.138Z" fill="#FEF7C1"/>
</svg>
