<svg width="48" height="48" viewBox="0 0 48 48" fill="none" xmlns="http://www.w3.org/2000/svg">
<path fill-rule="evenodd" clip-rule="evenodd" d="M23.3275 4.7565C22.9125 5.61947 22.257 7.04325 21.8708 7.92056C21.4847 8.79787 20.861 10.2117 20.4847 11.0625C19.0853 14.2266 16.7489 19.5639 16.5448 20.0625C16.4288 20.3461 16.1122 21.0844 15.8413 21.7031C15.5705 22.3219 15.186 23.2048 14.9869 23.6652L14.625 24.5024V28.9387V33.375H13.4163C12.4006 33.375 12.1985 33.3513 12.1507 33.2267C12.1193 33.1451 12.0938 32.2803 12.0938 31.3048V29.5312H6.9375H1.78125V34.5938V39.6562H6.93534H12.0895L12.115 37.9453L12.1406 36.2344H13.3594H14.5781L14.6026 40.3364L14.627 44.4383L24.6338 44.4145L34.6406 44.3906L34.6651 40.3359L34.6895 36.2812H36.8917H39.0938V37.9688V39.6562H43.5469H48V34.9219V30.1875H43.5469H39.0938V31.7812V33.375H36.8932H34.6927L34.6667 28.8984L34.6406 24.4219L33.8789 22.6875C33.46 21.7336 33.0304 20.7633 32.9242 20.5312C32.8179 20.2992 32.4593 19.4766 32.1269 18.7031C31.4948 17.2316 27.9566 9.22753 27.6512 8.57812C27.5543 8.37187 27.1 7.33828 26.6419 6.28125C26.1838 5.22422 25.678 4.10625 25.5181 3.79688L25.2273 3.23438L25.2464 12.2683L25.2656 21.3022L25.7529 21.4839C27.5482 22.1536 28.2048 24.4027 27.0944 26.0789C26.7281 26.6319 26.285 26.9688 25.6116 27.2062C24.4799 27.605 23.3984 27.3448 22.5147 26.4611C21.8792 25.8256 21.6241 25.1324 21.6781 24.1875C21.7503 22.9221 22.3166 22.0767 23.4639 21.5218L24.1212 21.2039L24.1499 12.1957C24.1657 7.24116 24.1568 3.1875 24.1303 3.1875C24.1038 3.1875 23.7426 3.89353 23.3275 4.7565ZM4.54284 32.2736C4.51734 32.3399 4.50787 33.4269 4.52175 34.6893L4.54688 36.9844L7.00781 37.0094C8.36137 37.0231 9.46875 37.004 9.46875 36.9668C9.46875 36.9296 9.33891 36.4407 9.18019 35.8805L8.89163 34.8617L9.14466 34.2355C9.33403 33.767 9.40078 33.4325 9.40978 32.9062L9.42188 32.2031L7.00547 32.1781C5.10469 32.1584 4.57922 32.1788 4.54284 32.2736ZM41.9822 33.4134C42.4127 33.8804 42.5109 34.2277 42.4503 35.0666C42.4186 35.5051 42.3448 35.719 42.1111 36.0505C41.9296 36.3082 41.8125 36.589 41.8125 36.7672V37.06L42.9522 36.9988C43.579 36.9651 44.4439 36.9375 44.8741 36.9375H45.6562V34.9688V33H43.6287H41.6011L41.9822 33.4134Z" fill="#5DBC89"/>
</svg>
